<svg width="150" height="54" viewBox="0 0 150 54" fill="none" xmlns="http://www.w3.org/2000/svg">
<path d="M20.5889 33.7123V40.7263C20.5889 45 19.7101 48.2933 17.9525 50.6061C16.2368 52.8687 13.6841 54 10.2944 54C6.9048 54 4.3312 52.8687 2.57361 50.6061C0.85787 48.2933 0 45 0 40.7263V13.2737C0 9 0.85787 5.73184 2.57361 3.46927C4.3312 1.15642 6.9048 0 10.2944 0C13.6841 0 16.2368 1.15642 17.9525 3.46927C19.7101 5.73184 20.5889 9 20.5889 13.2737V18.4022H14.0607V12.7458C14.0607 10.8352 13.7259 9.50279 13.0564 8.7486C12.4286 7.94413 11.5708 7.5419 10.4827 7.5419C9.39472 7.5419 8.51593 7.94413 7.84637 8.7486C7.21866 9.50279 6.9048 10.8352 6.9048 12.7458V41.2542C6.9048 43.1648 7.21866 44.4972 7.84637 45.2514C8.51593 46.0056 9.39472 46.3827 10.4827 46.3827C11.5708 46.3827 12.4286 46.0056 13.0564 45.2514C13.7259 44.4972 14.0607 43.1648 14.0607 41.2542V33.7123H20.5889Z" fill="#070000"/>
<path d="M39.6521 38.0866L44.3599 0.603349H53.9639V53.3966H47.4357V15.5363L42.6651 53.3966H36.1369L30.9897 16.0642V53.3966H24.9637V0.603349H34.5677L39.6521 38.0866Z" fill="#070000"/>
<path d="M60.8682 45.8547C61.2448 45.905 61.6424 45.9302 62.0609 45.9302C62.4793 45.9302 62.8769 45.9302 63.2535 45.9302C63.7975 45.9302 64.2997 45.8547 64.76 45.7039C65.2622 45.5531 65.6806 45.2765 66.0154 44.8743C66.392 44.4721 66.6641 43.8939 66.8314 43.1397C67.0407 42.3855 67.1453 41.4302 67.1453 40.2737L57.1019 0.603349H64.0068L71.602 31.5251L77.8791 0.603349H84.7839L75.7449 39.5196C74.9498 43.1397 74.1338 45.9302 73.2969 47.8911C72.5018 49.8017 71.6439 51.1844 70.7232 52.0391C69.8026 52.8436 68.7983 53.2961 67.7102 53.3966C66.6641 53.4972 65.4923 53.5475 64.1951 53.5475C63.5674 53.5475 63.0024 53.5475 62.5002 53.5475C61.9981 53.5475 61.4541 53.4972 60.8682 53.3966V45.8547Z" fill="#070000"/>
<path d="M87.6047 23.229H100.159V30.7709H87.6047V23.229Z" fill="#850000"/>
<path d="M109.106 7.24022C110.445 7.24022 111.533 7.06424 112.37 6.71229C113.249 6.36033 113.96 5.88268 114.504 5.27933C115.048 4.67598 115.487 3.97207 115.822 3.1676C116.157 2.36313 116.45 1.50838 116.701 0.603349H121.346V53.3966H114.441V13.1229H109.106V7.24022Z" fill="#850000"/>
<path d="M150 0.603349V7.84357L139.831 53.3966H132.926L143.032 8.14525H129.286V0.603349H150Z" fill="#850000"/>
</svg>
